<?xml version="1.0" encoding="UTF-8"?>
<svg version="1.1" xmlns="http://www.w3.org/2000/svg" width="334" height="84">
<path d="M0 0 C3.60907356 1.96270335 6.7941229 4.46389106 9.9609375 7.06640625 C10.6828125 6.30328125 11.4046875 5.54015625 12.1484375 4.75390625 C18.14236707 -0.97362645 23.29460106 -2.26312879 31.37109375 -2.14453125 C38.50894418 -1.56316787 44.33867827 1.63139692 48.9609375 7.06640625 C54.91183572 16.96124754 53.40284057 29.18236616 53.2109375 40.25390625 C53.19084114 42.27537292 53.17259592 44.29685889 53.15625 46.31835938 C53.11593111 51.23524759 53.03759906 56.14941869 52.9609375 61.06640625 C46.6909375 61.06640625 40.4209375 61.06640625 33.9609375 61.06640625 C33.91195312 58.2975 33.86296875 55.52859375 33.8125 52.67578125 C33.7584773 49.99164463 33.70117487 47.30759667 33.64355469 44.62353516 C33.6052916 42.75934463 33.57043404 40.89508095 33.5390625 39.03076172 C33.49335394 36.34966909 33.43536928 33.66907892 33.375 30.98828125 C33.36344879 30.155849 33.35189758 29.32341675 33.33999634 28.46575928 C33.29137993 22.94708149 33.29137993 22.94708149 30.9609375 18.06640625 C27.27595954 15.60975428 24.24121964 15.36554134 19.9609375 16.06640625 C17.1509029 17.86004536 15.45153282 19.0852156 13.9609375 22.06640625 C13.80373653 24.98125995 13.70238096 27.87580261 13.64453125 30.79296875 C13.62375015 31.65578461 13.60296906 32.51860046 13.58155823 33.40756226 C13.51607716 36.16876118 13.45718452 38.93005663 13.3984375 41.69140625 C13.3552509 43.56120797 13.31163657 45.43099987 13.26757812 47.30078125 C13.15959076 51.88922535 13.06050688 56.47774078 12.9609375 61.06640625 C6.6909375 61.06640625 0.4209375 61.06640625 -6.0390625 61.06640625 C-6.08804688 58.2975 -6.13703125 55.52859375 -6.1875 52.67578125 C-6.2415227 49.99164463 -6.29882513 47.30759667 -6.35644531 44.62353516 C-6.3947084 42.75934463 -6.42956596 40.89508095 -6.4609375 39.03076172 C-6.50664606 36.34966909 -6.56463072 33.66907892 -6.625 30.98828125 C-6.63655121 30.155849 -6.64810242 29.32341675 -6.66000366 28.46575928 C-6.73473562 22.96642662 -6.73473562 22.96642662 -9.0390625 18.06640625 C-12.47583568 15.52064834 -15.89013925 15.62967749 -20.0390625 16.06640625 C-22.79235271 17.8620303 -24.56533711 19.11895547 -26.0390625 22.06640625 C-26.19626347 24.98125995 -26.29761904 27.87580261 -26.35546875 30.79296875 C-26.37624985 31.65578461 -26.39703094 32.51860046 -26.41844177 33.40756226 C-26.48392284 36.16876118 -26.54281548 38.93005663 -26.6015625 41.69140625 C-26.6447491 43.56120797 -26.68836343 45.43099987 -26.73242188 47.30078125 C-26.84040924 51.88922535 -26.93949312 56.47774078 -27.0390625 61.06640625 C-33.3090625 61.06640625 -39.5790625 61.06640625 -46.0390625 61.06640625 C-46.0390625 40.93640625 -46.0390625 20.80640625 -46.0390625 0.06640625 C-40.0990625 0.06640625 -34.1590625 0.06640625 -28.0390625 0.06640625 C-27.7090625 1.38640625 -27.3790625 2.70640625 -27.0390625 4.06640625 C-26.49636719 3.71707031 -25.95367187 3.36773437 -25.39453125 3.0078125 C-24.67910156 2.55277344 -23.96367187 2.09773438 -23.2265625 1.62890625 C-22.51886719 1.17644531 -21.81117188 0.72398438 -21.08203125 0.2578125 C-14.69741044 -3.46553233 -6.63851474 -2.80443378 0 0 Z " fill="#000000" transform="translate(180.0390625,21.93359375)"/>
<path d="M0 0 C6.27 0 12.54 0 19 0 C19.33 7.26 19.66 14.52 20 22 C23.96 20.515 23.96 20.515 28 19 C35.40904565 17.75581835 42.43394781 19.51616292 49 23 C56.69108683 28.50599605 61.01942006 34.05826018 64 43 C64.7950422 54.4824948 64.26190309 63.8041994 57 73.25 C50.89181002 79.60355067 43.65568732 83.1885312 34.85180664 83.60766602 C28.01777405 83.66402753 22.78711934 82.81949876 17 79 C16.34 78.67 15.68 78.34 15 78 C14.34 79.32 13.68 80.64 13 82 C8.71 82 4.42 82 0 82 C0 54.94 0 27.88 0 0 Z M18.6875 42.8125 C16.76383122 46.44609658 16.07215961 48.88690225 16 53 C17.88452332 59.07235293 20.8100206 63.05056814 26.25 66.375 C31.11861471 67.48150334 35.72603863 67.39704621 40.06640625 64.73046875 C43.79715418 61.65396471 46.55214197 58.81733945 47.3359375 53.88671875 C47.4344403 48.34101112 46.72689706 44.25616055 43 40 C38.84510238 36.36177358 34.5999815 35.3386489 29.140625 35.6171875 C24.32806493 36.4778278 21.69308003 39.15706483 18.6875 42.8125 Z " fill="#000000" transform="translate(243,1)"/>
<path d="M0 0 C8.16274977 5.50953873 12.62829494 12.51317977 15 22 C15 25.63 15 29.26 15 33 C-0.51 33 -16.02 33 -32 33 C-28.2236219 40.08976199 -28.2236219 40.08976199 -22.21484375 43.40625 C-18.30546929 44.45426573 -14.85719592 44.14499322 -11 43 C-7.72689447 41.09643013 -7.72689447 41.09643013 -5 39 C-3.22265625 38.19140625 -3.22265625 38.19140625 -1 38 C2.015625 39.21484375 2.015625 39.21484375 5.25 40.9375 C6.32765625 41.50339844 7.4053125 42.06929687 8.515625 42.65234375 C9.33546875 43.09707031 10.1553125 43.54179688 11 44 C6.31207773 52.09240761 0.09000044 57.46350886 -9 60 C-20.20043326 61.07026362 -29.24927332 59.93276311 -38.25 53 C-44.95819391 46.7136195 -48.37555492 37.9946728 -49.3125 29 C-49.05335724 19.08778934 -45.18316335 10.98475292 -38.3046875 4.02734375 C-35.29176894 1.37699675 -32.6614237 -0.34199682 -29 -2 C-28.113125 -2.4125 -27.22625 -2.825 -26.3125 -3.25 C-17.11068255 -5.33343037 -8.35376362 -4.43363167 0 0 Z M-28 16 C-28.928125 16.804375 -28.928125 16.804375 -29.875 17.625 C-31.21107926 18.96188847 -31.21107926 18.96188847 -31 21 C-21.43 21 -11.86 21 -2 21 C-5.59947928 14.9878104 -5.59947928 14.9878104 -11 12 C-17.77366233 11.16106017 -22.67034106 11.33654843 -28 16 Z " fill="#000000" transform="translate(113,24)"/>
<path d="M0 0 C5.94 0 11.88 0 18 0 C18 6.6 18 13.2 18 20 C23.61 20 29.22 20 35 20 C35 24.95 35 29.9 35 35 C29.39 35 23.78 35 18 35 C18.11981065 38.95120235 18.24242156 42.9021587 18.37231445 46.85302734 C18.43698251 48.85894807 18.49683106 50.86502228 18.55664062 52.87109375 C18.59853516 54.12792969 18.64042969 55.38476562 18.68359375 56.6796875 C18.72025146 57.84226074 18.75690918 59.00483398 18.79467773 60.20263672 C18.81821659 62.9535501 18.81821659 62.9535501 20 65 C23.3324787 65.33417929 23.3324787 65.33417929 27 65 C28.32 63.68 29.64 62.36 31 61 C37.435 64.465 37.435 64.465 44 68 C42.41348408 74.34606368 38.36275581 78.4569758 32.9375 82 C26.11472135 84.36173107 17.02446875 84.36793827 10.4375 81.375 C5.65549181 78.48736336 2.05258054 74.20902455 0 69 C-0.24050903 65.8994751 -0.24050903 65.8994751 -0.22705078 62.21191406 C-0.22734283 61.53833359 -0.22763489 60.86475311 -0.22793579 60.17076111 C-0.22654641 57.95224974 -0.21100401 55.73407744 -0.1953125 53.515625 C-0.19158097 51.97434676 -0.18873466 50.43306613 -0.18673706 48.89178467 C-0.17911161 44.84097714 -0.15947253 40.7903137 -0.1373291 36.73956299 C-0.1168472 32.6037389 -0.10773033 28.46789147 -0.09765625 24.33203125 C-0.07622553 16.22128077 -0.04105232 8.11067493 0 0 Z " fill="#000000" transform="translate(21,1)"/>
<path d="M0 0 C6.27 0 12.54 0 19 0 C19 19.14 19 38.28 19 58 C12.73 58 6.46 58 0 58 C-1.70565618 56.29434382 -1.12752055 54.09266505 -1.12939453 51.76171875 C-1.13254669 50.64385986 -1.13569885 49.52600098 -1.13894653 48.37426758 C-1.1369223 47.15763428 -1.13489807 45.94100098 -1.1328125 44.6875 C-1.13376923 43.44830811 -1.13472595 42.20911621 -1.13571167 40.93237305 C-1.13639374 38.30611719 -1.13503538 35.67995367 -1.13037109 33.05371094 C-1.12467381 29.68071286 -1.12795302 26.30779435 -1.13394356 22.93479919 C-1.1384177 19.72736323 -1.13528882 16.519937 -1.1328125 13.3125 C-1.13483673 12.0958667 -1.13686096 10.8792334 -1.13894653 9.62573242 C-1.13579437 8.50787354 -1.13264221 7.39001465 -1.12939453 6.23828125 C-1.12859894 5.24868408 -1.12780334 4.25908691 -1.12698364 3.23950195 C-1 1 -1 1 0 0 Z " fill="#000000" transform="translate(315,25)"/>
<path d="M0 0 C2.98969861 1.30562787 3.81241879 2.32021302 6 5 C6.99098646 8.87839305 6.75789612 12.23157572 5.1796875 15.9140625 C3.5157781 18.36920155 1.75662373 19.80806236 -1.125 20.5390625 C-5.1555898 20.79778279 -8.19332672 20.32786623 -11.5 17.9375 C-14.48570354 14.42929833 -15.08184146 12.58312188 -15 8 C-12.05930706 1.18997426 -7.38066431 -1.45633798 0 0 Z " fill="#000000" transform="translate(328,0)"/>
<path d="M0 0 C5.54361702 3.28510638 5.54361702 3.28510638 6.515625 6.9375 C6.71870236 10.76695879 6.22165721 12.65273704 4.125 15.9375 C1.64918169 18.34050013 0.65611423 18.91052988 -2.75 19.375 C-6.22631857 18.97388632 -8.26765008 18.08242756 -10.859375 15.6953125 C-12.73482403 12.90783003 -12.68708528 10.37033131 -12.46875 7.08984375 C-11.795984 4.09042867 -10.47644542 2.74807912 -8 1 C-5.09704195 -0.45147903 -3.22738221 -0.37239025 0 0 Z " fill="#000000" transform="translate(12,19)"/>
</svg>
